<svg data-logo="logo" xmlns="http://www.w3.org/2000/svg" viewBox="0 0 54 41">
  <g id="logogram" transform="translate(0, 0) rotate(0)"><path d="M39.2452 33.1954L39.2482 33.1988L32.778 38.8758C31.4515 40.0686 29.7362 40.7443 27.948 40.7777L27.933 40.778H5.76066C4.93988 40.8125 4.12197 40.6588 3.37026 40.3289C2.60525 39.9931 1.92941 39.484 1.39717 38.8417C0.864912 38.1996 0.491213 37.4428 0.305487 36.6316C0.123215 35.8343 0.127171 35.0053 0.317917 34.2095L2.025 25.5176C2.17685 24.7609 2.5782 24.0761 3.16564 23.572L3.24934 23.5002C3.06763 23.2259 2.9347 22.9219 2.85677 22.6018C2.75338 22.1771 2.74976 21.7352 2.84499 21.3101L4.55547 12.6019L4.5581 12.5895C4.89098 11.027 5.72945 9.61615 6.94518 8.57317L12.8689 3.37551C13.143 3.06243 13.444 2.77079 13.7694 2.50417C15.0662 1.442 16.6798 0.837147 18.3583 0.783606L18.3862 0.782715L40.5854 0.846263C41.4054 0.812176 42.2223 0.965896 42.9732 1.29543C43.7383 1.6312 44.4141 2.14035 44.9463 2.78249C45.4784 3.42453 45.8523 4.1815 46.0379 4.99295C46.2204 5.79047 46.2162 6.61892 46.0257 7.4142L41.7855 29.0597L41.7794 29.086C41.4069 30.6945 40.5168 32.1373 39.2452 33.1954Z" fill="#03301D"/><path d="M40.239 2.84631C40.8222 2.81688 41.4042 2.92437 41.9385 3.16001C42.4728 3.39564 42.9446 3.7529 43.3161 4.2034C43.6877 4.65389 43.9487 5.18501 44.0783 5.75438C44.208 6.32375 44.2026 6.9156 44.0627 7.48254L39.8406 29.1418C39.5441 30.4288 38.8301 31.5814 37.8099 32.42C36.7896 33.2586 35.5206 33.7362 34.2006 33.7781H12.1103C11.5269 33.8071 10.9448 33.6996 10.4103 33.464C9.87586 33.2284 9.40378 32.8712 9.03167 32.421C8.65956 31.9708 8.39769 31.4399 8.26695 30.8706C8.13621 30.3013 8.14019 29.7093 8.27857 29.1418L9.98335 20.3793C10.0833 19.9516 10.3218 19.5691 10.6619 19.291C11.0019 19.013 11.4243 18.855 11.8634 18.842C15.8943 18.9853 19.7658 19.288 23.3745 20.5864L24.1711 25.597C24.1907 25.718 24.2545 25.8274 24.3502 25.9039C24.4459 25.9805 24.5666 26.0188 24.6889 26.0113C24.8295 26.0089 24.9669 25.9693 25.0873 25.8965C25.2076 25.8238 25.3066 25.7204 25.374 25.597L28.0985 20.5864L33.5473 18.8659C33.6791 18.8237 33.7977 18.7479 33.8913 18.6459C33.9849 18.544 34.0503 18.4193 34.0811 18.2844C34.1122 18.1651 34.0976 18.0383 34.0401 17.9293C33.9826 17.8202 33.8864 17.7367 33.7704 17.6949L28.9907 15.9821L28.1941 10.9717C28.1746 10.8501 28.1111 10.7398 28.0156 10.6619C27.9201 10.584 27.7993 10.544 27.6762 10.5495C27.5349 10.5527 27.3969 10.5935 27.2765 10.6677C27.1561 10.7419 27.0576 10.8469 26.9912 10.9717L24.2667 15.9821C20.3161 17.1154 16.2282 17.6998 12.1183 17.7188C11.921 17.7356 11.7225 17.7052 11.5392 17.6303C11.356 17.5555 11.1931 17.4384 11.064 17.2883C10.9349 17.1382 10.8433 16.9595 10.7966 16.767C10.75 16.5746 10.7498 16.3738 10.7959 16.1813L12.5006 7.41875C12.7956 6.13248 13.5081 4.98006 14.527 4.14136C15.5458 3.30265 16.8137 2.825 18.1328 2.78271L40.239 2.84631Z" fill="#86EE02"/></g>
  <g id="logotype" transform="translate(53, 20.5)"><path fill="#111111" d=""/></g>
</svg>